#!OML:ASF I:\Actors\actors\Patient Classification 2\Patient 1\Session 1\actor1.ASF
:FULLY-SPECIFIED
:DEGREES
818
root -0.942942 17.8735 7.79125 1.51653 -5.20168 -4.4493
lowerback -2.92027 2.06599 -0.998281
upperback -6.71885 2.7416 -0.196383
thorax -5.35333 1.40939 0.304123
lowerneck -31.0603 -3.15696 -1.28433
upperneck 22.0505 -4.61298 2.64038
head 12.5134 -1.76144 0.341612
rclavicle -2.34566e-014 -7.15625e-015
rhumerus -54.1092 -19.9613 -24.4897
rradius 141.862
rwrist 9.01596
rhand -54.0577 -54.2067
rfingers 7.12502
rthumb -26.4785 -82.3768
lclavicle -2.34566e-014 -7.15625e-015
lhumerus -55.2748 12.7189 37.4453
lradius 137.616
lwrist -15.3093
lhand -39.4527 -68.3243
lfingers 7.12502
lthumb -12.4401 -38.7146
rfemur 15.8327 4.25551 19.9058
rtibia -3.26186
rfoot -19.379 -9.78315
rtoes 4.91139
lfemur 26.0014 -10.6018 -16.4223
ltibia -21.6297
lfoot -10.2028 27.3307
ltoes -7.61392
819
root -0.941822 17.8673 7.78828 1.59946 -5.00664 -4.44841
lowerback -3.05871 2.01705 -1.02677
upperback -6.64719 2.67904 -0.174939
thorax -5.20021 1.38003 0.350687
lowerneck -31.1535 -3.18558 -1.26907
upperneck 21.8894 -4.64993 2.63505
head 12.466 -1.77823 0.329667
rclavicle -4.59193e-014 6.36111e-015
rhumerus -53.8852 -19.962 -24.8067
rradius 141.876
rwrist 9.08378
rhand -55.0512 -53.8064
rfingers 7.12502
rthumb -27.4291 -81.8296
lclavicle -4.59193e-014 6.36111e-015
lhumerus -55.0366 12.6643 37.6994
lradius 137.63
lwrist -15.3956
lhand -39.3987 -68.3683
lfingers 7.12502
lthumb -12.3881 -38.7554
rfemur 15.5623 4.02496 19.8737
rtibia -2.90407
rfoot -19.615 -9.54755
rtoes 5.24791
lfemur 25.8657 -10.811 -16.4218
ltibia -21.6174
lfoot -10.2448 27.3744
ltoes -7.72863
820
root -0.942087 17.863 7.78425 1.67966 -4.83719 -4.46117
lowerback -3.17502 1.99304 -1.0584
upperback -6.58029 2.64942 -0.15816
thorax -5.06529 1.36703 0.392368
lowerneck -31.1793 -3.22013 -1.24365
upperneck 21.6485 -4.69938 2.63766
head 12.3752 -1.80058 0.317802
rclavicle -2.80286e-014 1.51076e-014
rhumerus -53.8041 -19.9746 -25.2067
rradius 141.716
rwrist 9.48586
rhand -54.8046 -53.4832
rfingers 7.12502
rthumb -27.1933 -81.5435
lclavicle -2.80286e-014 1.51076e-014
lhumerus -54.7454 12.615 38.0233
lradius 137.57
lwrist -15.5611
lhand -39.4088 -68.3185
lfingers 7.12502
lthumb -12.3978 -38.7061
rfemur 15.298 3.81687 19.8662
rtibia -2.54775
rfoot -19.8494 -9.31889
rtoes 5.58473
lfemur 25.7314 -11.0293 -16.4091
ltibia -21.5918
lfoot -10.2885 27.3672
ltoes -7.13433
821
root -0.942939 17.8626 7.78097 1.78377 -4.73608 -4.38753
lowerback -3.31691 1.9859 -1.19988
upperback -6.54561 2.64168 -0.161963
thorax -4.95487 1.36973 0.47369
lowerneck -31.1806 -3.25219 -1.18439
upperneck 21.4261 -4.75303 2.60999
head 12.2859 -1.82644 0.288368
rclavicle 2.24627e-014 3.97569e-015
rhumerus -53.8364 -19.9642 -25.69
rradius 141.406
rwrist 10.1553
rhand -53.6901 -53.4697
rfingers 7.12502
rthumb -26.1266 -81.6923
lclavicle 2.24627e-014 3.97569e-015
lhumerus -54.5224 12.5276 38.3576
lradius 137.455
lwrist -15.6583
lhand -39.5588 -68.2788
lfingers 7.12502
lthumb -12.5425 -38.6753
rfemur 14.9539 3.67301 19.773
rtibia -2.10788
rfoot -20.055 -9.15453
rtoes 5.47076
lfemur 25.5624 -11.1447 -16.4756
ltibia -21.5646
lfoot -10.3051 27.3684
ltoes -6.59973
822
root -0.943326 17.8647 7.77942 1.90804 -4.68734 -4.28109
lowerback -3.50063 1.97921 -1.37841
upperback -6.53252 2.6354 -0.168083
thorax -4.84548 1.37476 0.57429
lowerneck -31.1884 -3.27378 -1.09849
upperneck 21.3304 -4.80226 2.55585
head 12.2464 -1.85002 0.244823
rclavicle 2.42517e-014 1.66979e-014
rhumerus -53.8762 -19.9223 -26.2605
rradius 141.26
rwrist 10.4175
rhand -53.4936 -53.39
rfingers 7.12502
rthumb -25.9385 -81.6403
lclavicle 2.42517e-014 1.66979e-014
lhumerus -54.4379 12.4796 38.7077
lradius 137.318
lwrist -15.7836
lhand -39.6942 -68.2983
lfingers 7.12502
lthumb -12.6729 -38.7028
rfemur 14.5899 3.58002 19.6442
rtibia -1.6746
rfoot -20.2206 -9.05566
rtoes 5.07474
lfemur 25.361 -11.0898 -16.5451
ltibia -21.5329
lfoot -10.2464 27.2932
ltoes -6.5363
823
root -0.942051 17.8677 7.77781 2.03091 -4.67089 -4.26915
lowerback -3.67608 1.99137 -1.41372
upperback -6.51566 2.65467 -0.161652
thorax -4.73107 1.38585 0.607705
lowerneck -31.1891 -3.295 -1.08061
upperneck 21.3114 -4.84498 2.57547
head 12.2401 -1.86478 0.241369
rclavicle -3.67752e-014 1.59028e-015
rhumerus -53.9697 -19.8612 -26.8112
rradius 141.303
rwrist 10.2153
rhand -54.0639 -53.6148
rfingers 7.12502
rthumb -26.4845 -81.7839
lclavicle -3.67752e-014 1.59028e-015
lhumerus -54.3879 12.5619 39.0364
lradius 137.2
lwrist -15.9062
lhand -39.5497 -68.2472
lfingers 7.12502
lthumb -12.5336 -38.6431
rfemur 14.3098 3.52122 19.6129
rtibia -1.40947
rfoot -20.2662 -8.98448
rtoes 4.77706
lfemur 25.1799 -10.9983 -16.5094
ltibia -21.4979
lfoot -10.1945 27.2008
ltoes -6.66142
824
root -0.940669 17.8722 7.77454 2.1292 -4.67368 -4.32472
lowerback -3.84299 2.00654 -1.33836
upperback -6.46042 2.67761 -0.149948
thorax -4.57593 1.39334 0.585696
lowerneck -31.1529 -3.3017 -1.1211
upperneck 21.279 -4.86389 2.67523
head 12.2259 -1.86302 0.282946
rclavicle -2.56432e-014 -1.35174e-014
rhumerus -54.1198 -19.8508 -27.3177
rradius 141.258
rwrist 10.1928
rhand -54.1405 -54.5824
rfingers 7.12502
rthumb -26.5578 -82.7405
lclavicle -2.56432e-014 -1.35174e-014
lhumerus -54.3655 12.7205 39.3525
lradius 137.119
lwrist -15.9481
lhand -39.4153 -68.0604
lfingers 7.12502
lthumb -12.4041 -38.4484
rfemur 13.9944 3.4837 19.6516
rtibia -1.04403
rfoot -20.333 -8.83704
rtoes 4.82198
lfemur 25.0526 -10.9442 -16.4127
ltibia -21.4812
lfoot -10.1329 27.1674
ltoes -6.70529
825
root -0.939327 17.8769 7.7689 2.17541 -4.7039 -4.36576
lowerback -3.94344 2.01629 -1.26186
upperback -6.38363 2.69179 -0.149488
thorax -4.43487 1.39608 0.549499
lowerneck -31.1032 -3.26593 -1.04623
upperneck 21.2807 -4.84742 2.66991
head 12.2155 -1.85066 0.27259
rclavicle -1.66979e-014 -9.54166e-015
rhumerus -54.259 -19.8472 -27.849
rradius 141.218
rwrist 10.3937
rhand -52.779 -53.8728
rfingers 7.12502
rthumb -25.254 -82.2214
lclavicle -1.66979e-014 -9.54166e-015
lhumerus -54.4386 12.8247 39.6197
lradius 137.078
lwrist -15.9562
lhand -39.4353 -67.9471
lfingers 7.12502
lthumb -12.4234 -38.3363
rfemur 13.3801 3.47618 19.6666
rtibia 3.18055e-015
rfoot -20.6678 -8.4541
rtoes 5.19743
lfemur 24.99 -10.8819 -16.3437
ltibia -21.4884
lfoot -10.0463 27.1372
ltoes -6.70248
826
root -0.93621 17.8815 7.76114 2.17871 -4.76696 -4.40292
lowerback -3.94729 2.04494 -1.15819
upperback -6.30617 2.72933 -0.157274
thorax -4.34631 1.4093 0.48587
lowerneck -31.1016 -3.23082 -0.943357
upperneck 21.3547 -4.8316 2.61011
head 12.2394 -1.84232 0.235896
rclavicle 7.35503e-015 -2.38542e-015
rhumerus -54.4079 -19.7945 -28.2993
rradius 141.324
rwrist 10.5239
rhand -53.1901 -54.2013
rfingers 7.12502
rthumb -25.6478 -82.4938
lclavicle 7.35503e-015 -2.38542e-015
lhumerus -54.5402 12.8207 39.7656
lradius 137.125
lwrist -15.9654
lhand -39.4747 -67.8645
lfingers 7.12502
lthumb -12.4614 -38.256
rfemur 13.3398 3.50048 19.6861
rtibia 1.59028e-014
rfoot -20.5556 -8.45142
rtoes 5.20616
lfemur 24.9694 -10.7848 -16.292
ltibia -21.4917
lfoot -10.0031 27.0824
ltoes -6.73934
